<?xml version="1.0" standalone="yes"?>
<svg xmlns="http://www.w3.org/2000/svg" width="197" height="255">
<path style="fill:#000000; stroke:none;" d="M0 0L0 255L197 255L197 0L0 0z"/>
<path style="fill:#808080; stroke:none;" d="M137 4L138 5L137 4z"/>
<path style="fill:#ffff00; stroke:none;" d="M136 5L137 6L136 5z"/>
<path style="fill:#b7a33e; stroke:none;" d="M137 5L137 8C137.696 6.4463 137.696 6.55371 137 5z"/>
<path style="fill:#deb846; stroke:none;" d="M138 5L138 15C138.685 13.7516 138.749 13.4516 139 12L143 13C141.673 10.1291 139.917 7.5183 138 5z"/>
<path style="fill:#a48018; stroke:none;" d="M136 6C136.11 8.44202 136.428 10.6228 137 13C138.078 10.2268 137.663 8.43532 136 6z"/>
<path style="fill:#b5974d; stroke:none;" d="M139 6C139.684 7.58003 139.805 7.77719 141 9C140.316 7.42009 140.195 7.22273 139 6z"/>
<path style="fill:#b69739; stroke:none;" d="M141.333 9.66667C141.278 9.7222 141.222 10.7778 141.667 10.3333C141.722 10.2778 141.778 9.22224 141.333 9.66667z"/>
<path style="fill:#e7c523; stroke:none;" d="M139 12L140 19C140.685 17.7516 140.749 17.4516 141 16C142.517 16.9573 143.339 17.3872 145 18C143.773 14.5801 142.42 13.2267 139 12z"/>
<path style="fill:#c09622; stroke:none;" d="M143.333 12.6667C143.278 12.7222 143.222 13.7778 143.667 13.3333C143.722 13.2777 143.778 12.2223 143.333 12.6667z"/>
<path style="fill:#a88d47; stroke:none;" d="M137 13L137 53C140.206 45.3606 138 33.2707 138 25C138 21.0172 138.552 16.6987 137 13z"/>
<path style="fill:#aba06a; stroke:none;" d="M144 14L144 16L146 16C145.455 14.3648 145.635 14.545 144 14z"/>
<path style="fill:#e4c360; stroke:none;" d="M138 15L138 25C139.346 21.793 139.346 18.207 138 15z"/>
<path style="fill:#ebc041; stroke:none;" d="M139 15C138.987 33.9233 139.027 53.1631 136.714 72C135.404 82.663 131.486 93.3749 131 104C137.435 100.348 137.356 89.6657 138.13 83C140.003 66.8665 141 51.2885 141 35C141 28.6569 142.289 20.6463 139 15z"/>
<path style="fill:#f8d76d; stroke:none;" d="M141 16L141 51C144.511 42.6332 142 29.0762 142 20C144.902 24.222 147.625 29.2254 152 32C149.777 26.1365 145.624 20.2258 141 16z"/>
<path style="fill:#b5953c; stroke:none;" d="M145 16C145.936 17.9485 146.392 18.5502 148 20C147.064 18.0515 146.608 17.4498 145 16z"/>
<path style="fill:#e2c34b; stroke:none;" d="M143 18L145 22C146.015 20.8607 146.309 20.3884 147 19L143 18z"/>
<path style="fill:#fce89a; stroke:none;" d="M142 20C142 36.522 140.877 53.4841 142.054 69.9606C142.301 73.4169 143.774 76.5135 144 80L147 80C147.018 73.4081 148.839 67.4722 149.711 61C150.792 52.9844 151 45.0765 151 37C147.433 41.7082 149.557 48.4023 148.812 53.9961C148.345 57.5038 146.475 60.4923 146 64L143 64C143.331 56.2978 143.988 48.7488 144 41C144.008 35.7592 143.493 29.7065 146 25L142 20z"/>
<path style="fill:#e3c028; stroke:none;" d="M146 20C146.849 23.5707 148.189 25.6489 151 28C150.294 24.3598 149.199 21.9628 146 20z"/>
<path style="fill:#c6a240; stroke:none;" d="M148 20C148.684 21.58 148.805 21.7772 150 23C149.316 21.4201 149.195 21.2227 148 20z"/>
<path style="fill:#bc9e44; stroke:none;" d="M150 23C150.684 24.5801 150.805 24.7772 152 26C151.316 24.4201 151.195 24.2228 150 23z"/>
<path style="fill:#f6e6ad; stroke:none;" d="M144 26C144.29 38.7356 143.262 51.3297 143 64L146 64C146.715 60.9146 148.385 58.1486 148.812 54.9853C149.39 50.6958 148.543 46.2953 149.144 42.0147C149.498 39.4846 151.327 37.404 151.569 34.9198C151.994 30.5394 147.634 27.0726 144 26z"/>
<path style="fill:#e3bc44; stroke:none;" d="M151 26C150.9 30.7797 152.719 33.8662 157 36C155.485 32.4105 153.39 29.0741 151 26z"/>
<path style="fill:#c5a650; stroke:none;" d="M152 26C152.651 28.4344 153.16 29.2827 155 31C154.199 28.896 153.503 27.6631 152 26z"/>
<path style="fill:#b79e3b; stroke:none;" d="M155 31C155.406 33.0924 155.217 33.0197 157 34C156.316 32.42 156.195 32.2228 155 31z"/>
<path style="fill:#ffde6a; stroke:none;" d="M152 33L152 37C153.243 35.097 153.243 34.903 152 33z"/>
<path style="fill:#bc9743; stroke:none;" d="M157 34C157.684 35.58 157.805 35.7772 159 37C158.316 35.42 158.195 35.2228 157 34z"/>
<path style="fill:#ecbd32; stroke:none;" d="M152 41L157 40C156.036 34.4921 152.708 36.5784 152 41z"/>
<path style="fill:#d5b755; stroke:none;" d="M157 36C157.211 38.7386 157.303 39.422 160 40C159.316 37.7911 158.92 37.2966 157 36z"/>
<path style="fill:#f8d771; stroke:none;" d="M151 37L151 46C152.256 43.0058 152.256 39.9942 151 37z"/>
<path style="fill:#ffff00; stroke:none;" d="M160 38L161 39L160 38z"/>
<path style="fill:#808080; stroke:none;" d="M160.333 39.6667C160.278 39.7222 160.222 40.7778 160.667 40.3333C160.722 40.2778 160.778 39.2222 160.333 39.6667z"/>
<path style="fill:#e6c863; stroke:none;" d="M138 40L138 52C139.512 48.3956 139.512 43.6043 138 40z"/>
<path style="fill:#c09932; stroke:none;" d="M154 40C154.008 43.1691 154.1 45.9592 155 49C156.355 45.7393 155.979 42.897 154 40z"/>
<path style="fill:#9e7900; stroke:none;" d="M155.333 40.6667C155.278 40.7222 155.222 41.7778 155.667 41.3333C155.722 41.2777 155.778 40.2223 155.333 40.6667z"/>
<path style="fill:#b19446; stroke:none;" d="M156 40C157.506 40.683 158.315 40.8259 160 41C158.494 40.317 157.685 40.1741 156 40z"/>
<path style="fill:#e9c242; stroke:none;" d="M152 41C152 58.9391 149.402 77.3995 146.319 95C145.486 99.7599 143.481 104.166 143 109C149.361 103.307 149.413 94.9135 150.17 87C151.654 71.4762 154.32 56.5177 154 41L152 41z"/>
<path style="fill:#efcb5d; stroke:none;" d="M151 46L151 56C152.346 52.7929 152.346 49.207 151 46z"/>
<path style="fill:#f7df80; stroke:none;" d="M141 51C140.993 61.7941 138.827 72.294 138.09 83C137.566 90.6068 138 98.3757 138 106C143.257 104.273 143.214 98.6903 144.734 94C149.05 80.6793 151 67.0188 151 53C147.856 60.4753 147.005 71.8644 147 80L144 80C143.886 76.1382 142.32 72.7848 142.054 68.9853C141.65 63.2091 143.265 56.397 141 51z"/>
<path style="fill:#bf9843; stroke:none;" d="M137 53L137 61C138.161 58.2301 138.161 55.7699 137 53z"/>
<path style="fill:#a28b46; stroke:none;" d="M154 53L154 65C155.512 61.3956 155.512 56.6043 154 53z"/>
<path style="fill:#bdaf64; stroke:none;" d="M117 57L117 59L120 59L120 57L117 57z"/>
<path style="fill:#a99c68; stroke:none;" d="M171.667 57.3333C171.222 57.7778 172.278 57.7222 172.333 57.6667C172.778 57.2222 171.722 57.2778 171.667 57.3333z"/>
<path style="fill:#aa8b2b; stroke:none;" d="M116 58C114.242 60.0122 113.084 61.5813 112 64C114.348 62.2267 116.084 60.9985 116 58z"/>
<path style="fill:#ffff00; stroke:none;" d="M136 58L137 59L136 58z"/>
<path style="fill:#886c22; stroke:none;" d="M170 58L170 67C171.256 64.0058 171.256 60.9942 170 58z"/>
<path style="fill:#a9923d; stroke:none;" d="M171.333 58.6667C171.278 58.7222 171.222 59.7778 171.667 59.3333C171.722 59.2777 171.778 58.2223 171.333 58.6667z"/>
<path style="fill:#d2b34e; stroke:none;" d="M172 58C172.71 60.9437 173.427 62.3917 176 64C175.151 61.1934 174.452 59.6116 172 58z"/>
<path style="fill:#dbb837; stroke:none;" d="M111 64L111 66L114 67C115.481 65.4018 116.061 64.8917 118 64C117.438 67.0251 117.064 69.9221 117 73L119 73L119 59C116.08 60.3332 113.663 62.2032 111 64z"/>
<path style="fill:#a58a30; stroke:none;" d="M119 59L119 73C120.667 69.0279 120.667 62.9721 119 59z"/>
<path style="fill:#ae9428; stroke:none;" d="M136 59L136 74C137.74 69.8523 137.74 63.1477 136 59z"/>
<path style="fill:#c89f38; stroke:none;" d="M153 59C153 67.1386 151.067 74.9173 151 83C154.063 76.6379 155.79 65.6494 153 59z"/>
<path style="fill:#bc931a; stroke:none;" d="M171 60L171 67C172.059 64.4657 172.059 62.5343 171 60z"/>
<path style="fill:#eebf30; stroke:none;" d="M172 61C172.364 64.4639 172.24 68.1943 176 69C175.388 65.618 174.433 63.4347 172 61z"/>
<path style="fill:#807a6b; stroke:none;" d="M111 63L112 64L111 63z"/>
<path style="fill:#ffff00; stroke:none;" d="M176 63L177 64L176 63z"/>
<path style="fill:#cdaa48; stroke:none;" d="M110 64C107.794 66.2519 105.807 68.4237 104 71C107.158 69.5112 110.08 67.7169 110 64z"/>
<path style="fill:#ffdc6b; stroke:none;" d="M115 64C111.475 69.075 105.672 72.5317 103 78C107.108 77.6731 111.114 71.4466 114 75C116.258 71.695 116.549 67.6925 115 64z"/>
<path style="fill:#eac344; stroke:none;" d="M116 64C115.979 71.6106 111.06 82.8217 116 89C118.607 80.4937 116.936 72.604 118 64L116 64z"/>
<path style="fill:#d6b022; stroke:none;" d="M152 64L152 71C153.059 68.4657 153.059 66.5343 152 64z"/>
<path style="fill:#ebc54d; stroke:none;" d="M172 64C171.183 71.0988 169.183 78.6659 169.545 85.8302C169.719 89.2756 170.961 92.4529 171 96C172.223 93.0858 171.87 90.1302 172.17 87C172.717 81.2904 173.952 75.7581 174 70C176.268 71.8168 177.531 73.4829 179 76C179.527 73.6678 178.962 71.4126 179 69C176.879 68.7535 175.126 68.7695 173 69C172.912 67.0359 172.779 65.769 172 64z"/>
<path style="fill:#e6b800; stroke:none;" d="M175.333 64.6667C175.278 64.7222 175.222 65.7778 175.667 65.3333C175.722 65.2778 175.778 64.2222 175.333 64.6667z"/>
<path style="fill:#d5ae3e; stroke:none;" d="M176 64C176.418 66.6895 176.717 67.5537 179 69C178.251 66.7462 177.656 65.6865 176 64z"/>
<path style="fill:#efc52e; stroke:none;" d="M92 84L100 84C99.9919 96.2462 91.8361 106.492 88 118L90 119C95.4978 112.05 99.5916 100.088 101.938 91.5756C103.259 86.781 105.305 82.053 99 81C103.853 76.4883 110.192 72.0649 113 66C104.859 68.2575 96.7359 77.2812 92 84z"/>
<path style="fill:#af8f2b; stroke:none;" d="M170 67L170 75C171.161 72.2302 171.161 69.7699 170 67z"/>
<path style="fill:#fad55b; stroke:none;" d="M171 68L171 72C171.71 70.2405 171.71 69.7595 171 68z"/>
<path style="fill:#ffff00; stroke:none;" d="M179 68L180 69L179 68z"/>
<path style="fill:#ab923a; stroke:none;" d="M178 70L181 74C181.41 71.8597 180.968 71.0375 180 69L178 70z"/>
<path style="fill:#f9d76b; stroke:none;" d="M174 73C175.641 73.1306 176.456 73.3692 178 74C177.064 72.0514 176.608 71.4498 175 70C174.315 71.2482 174.251 71.5485 174 73z"/>
<path style="fill:#deb33a; stroke:none;" d="M179 71C179.541 74.9881 179.913 78.5678 184 80C182.958 76.4597 181.525 73.6986 179 71z"/>
<path style="fill:#c3a745; stroke:none;" d="M96 79C98.9645 76.9934 101.167 75.0806 103 72C99.4985 73.6493 97.6493 75.4985 96 79z"/>
<path style="fill:#fada7c; stroke:none;" d="M104 78L108 88C113.334 85.8558 113.297 77.2204 114 72C109.809 73.1712 108.021 76.7502 104 78z"/>
<path style="fill:#fbe195; stroke:none;" d="M175 72C173.909 75.6904 174.172 79.1898 173.91 83C173.425 90.0778 170.393 100.509 176 106C178.889 99.1922 179.141 92.2099 185 87C182.542 81.5054 179.88 75.6364 175 72z"/>
<path style="fill:#b49146; stroke:none;" d="M118 73L118 79C118.951 76.7147 118.951 75.2853 118 73z"/>
<path style="fill:#9f8748; stroke:none;" d="M169 73L169 81C170.161 78.2302 170.161 75.7699 169 73z"/>
<path style="fill:#af923d; stroke:none;" d="M135 74L135 80C135.951 77.7147 135.951 76.2853 135 74z"/>
<path style="fill:#b09a36; stroke:none;" d="M182 74L185 83C186.263 79.347 184.61 76.6152 182 74z"/>
<path style="fill:#f7e05e; stroke:none;" d="M113 75L112 85C114.256 81.8272 114.888 78.8599 115 75L113 75z"/>
<path style="fill:#ffd952; stroke:none;" d="M102 77L99 80C100.648 80.9241 102.175 81.4494 104 82C103.697 79.7058 103.421 78.7885 102 77z"/>
<path style="fill:#f9da76; stroke:none;" d="M173 77C172.678 92.5989 167.17 107.446 167 123C168.728 122.943 170.816 123.14 172.267 121.973C174.916 119.842 179.259 109.611 177 107C179.876 103.046 180.382 97.7885 181 93C177.764 96.4533 177.394 101.534 176 106C169.444 96.8863 176.947 86.4058 173 77z"/>
<path style="fill:#a9996e; stroke:none;" d="M95 78L94 80L96 80C96 78.1468 96.2997 78.6498 95 78z"/>
<path style="fill:#a58a3e; stroke:none;" d="M152 78L152 81C152.696 79.4463 152.696 79.5537 152 78z"/>
<path style="fill:#b18934; stroke:none;" d="M93 80L93 82C94.6351 81.455 94.4549 81.6352 95 80L93 80z"/>
<path style="fill:#f5c200; stroke:none;" d="M96 80L96 82C97.6351 81.455 97.4549 81.6352 98 80L96 80z"/>
<path style="fill:#fbda67; stroke:none;" d="M104 80C103.763 85.5212 103.564 90.4734 104 96L109 98C109.99 94.3232 111.502 90.7631 112 87L108 88L106 80L104 80z"/>
<path style="fill:#ffff00; stroke:none;" d="M134 80L135 81L134 80z"/>
<path style="fill:#e8c048; stroke:none;" d="M181 80C182.764 83.9138 184.802 86.7607 189 88C187.667 85.0804 185.797 82.6626 184 80L181 80z"/>
<path style="fill:#887140; stroke:none;" d="M91 81L91 83L93 83L93 81L91 81z"/>
<path style="fill:#aa8e55; stroke:none;" d="M117 81L117 86C117.83 83.9695 117.83 83.0305 117 81z"/>
<path style="fill:#aa8e2b; stroke:none;" d="M134 81L133 91C135.123 87.8918 135.459 84.4838 134 81z"/>
<path style="fill:#808080; stroke:none;" d="M152 81L153 82L152 81z"/>
<path style="fill:#a78927; stroke:none;" d="M169 81C168.01 84.35 168.002 87.514 168 91C169.398 87.8857 170.163 84.2422 169 81z"/>
<path style="fill:#c4a247; stroke:none;" d="M186 81C186.651 83.4344 187.16 84.2827 189 86C188.251 83.7462 187.656 82.6864 186 81z"/>
<path style="fill:#a69354; stroke:none;" d="M90 83C90.9803 84.7834 90.9076 84.5943 93 85C91.7772 83.8048 91.58 83.6836 90 83z"/>
<path style="fill:#b1893b; stroke:none;" d="M151 83L151 89C151.951 86.7147 151.951 85.2853 151 83z"/>
<path style="fill:#ba952f; stroke:none;" d="M93 84C94.9856 85.3013 95.6277 85.3298 98 85C96.231 84.2211 94.964 84.0876 93 84z"/>
<path style="fill:#aa7c00; stroke:none;" d="M97 85C98.1394 86.0154 98.6116 86.3087 100 87C99.7488 85.5485 99.6848 85.2483 99 84L97 85z"/>
<path style="fill:#ccaa37; stroke:none;" d="M150 84L150 90C150.951 87.7147 150.951 86.2853 150 84z"/>
<path style="fill:#928037; stroke:none;" d="M91 85C92.506 85.683 93.3148 85.8259 95 86C93.4939 85.317 92.6852 85.1741 91 85z"/>
<path style="fill:#fac633; stroke:none;" d="M112 85C111.999 95.4634 108.85 105.074 103.323 114C102.108 115.962 99.0715 122.417 95.8927 121.307C93.5148 120.477 94.3415 114.844 92 113C91.8512 115.578 90.4108 118.151 90.6821 120.718C90.9376 123.136 92.395 125.622 93 128C90.8363 126.062 89.4006 123.607 87 122C85.382 127.111 81.4167 130.928 80 136L85 133L84 136C91.327 137.522 94.796 132.867 95 126C105.46 124.325 110.323 106.522 113.572 98C115.28 93.5191 116.251 88.0655 112 85z"/>
<path style="fill:#bc9a46; stroke:none;" d="M189 86C189.464 88.1723 190.105 89.9583 191 92C191.64 89.3401 190.777 88.0504 189 86z"/>
<path style="fill:#c5a357; stroke:none;" d="M98 87L98 91C98.9114 89.6235 99.4038 88.5601 100 87L98 87z"/>
<path style="fill:#f0ce5f; stroke:none;" d="M181 96C182.522 92.7469 184.088 90.0323 186 87C181.404 88.6899 181.055 91.3953 181 96z"/>
<path style="fill:#edc24f; stroke:none;" d="M99 88L97 96C99.9095 93.9445 100.326 91.2569 99 88z"/>
<path style="fill:#a7923f; stroke:none;" d="M116 88C115.278 90.4181 115.052 92.4716 115 95C116.145 92.6102 116.613 90.5778 116 88z"/>
<path style="fill:#f8d564; stroke:none;" d="M137 88C136.405 92.7044 136.493 97.5799 133 101L134 109C129.572 111.78 125.503 120.795 131 124C131.648 121.291 131.942 118.784 132 116C134.092 118.029 135.556 120.415 138 122L139 112C144.752 108.384 146.671 97.4328 147 91C142.489 95.3999 143.948 102.754 138 106C138 100.368 139.191 93.2224 137 88z"/>
<path style="fill:#e5c140; stroke:none;" d="M169 88C167.938 93.4769 163.006 105.169 168 109C168.57 101.843 170.98 95.2342 171 88L169 88z"/>
<path style="fill:#f1c230; stroke:none;" d="M183 89L183 93L187 93L185 90C188.261 90 188.536 89.8566 188 92C191.643 88.5562 185.315 88.6409 183 89z"/>
<path style="fill:#f6d359; stroke:none;" d="M102 89C101.233 93.647 101.101 99.1246 99.8079 103.572C98.5235 107.988 94.879 110.064 99 114C100.339 109.793 101.391 107.717 106 109C106.277 106.599 105.876 103.549 107.048 101.375C109.261 97.266 111.72 96.0954 112 91L110 91L109 98C107.277 97.0659 105.894 96.4646 104 96C103.858 93.1901 103.591 91.3144 102 89z"/>
<path style="fill:#ffff00; stroke:none;" d="M116 90L117 91L116 90z"/>
<path style="fill:#bc9855; stroke:none;" d="M150 90L150 94C150.71 92.2405 150.71 91.7595 150 90z"/>
<path style="fill:#a6904e; stroke:none;" d="M167 90L167 96C167.951 93.7147 167.951 92.2853 167 90z"/>
<path style="fill:#e5c140; stroke:none;" d="M182 90C181.645 95.4649 179.704 102.232 177 107C178.041 108.454 178.008 109.143 178 111C183.307 107.225 185.291 95.502 182 90z"/>
<path style="fill:#f1c00c; stroke:none;" d="M185 92L189 91C186.954 90.2489 186.404 90.3444 185 92z"/>
<path style="fill:#d9b34d; stroke:none;" d="M190 90C188.777 91.1952 188.58 91.3164 187 92C188.693 93.0624 190.04 93.5196 192 94C191.436 92.2481 191.081 91.458 190 90z"/>
<path style="fill:#b59c52; stroke:none;" d="M97 91L97 94C97.6961 92.4463 97.6961 92.5537 97 91z"/>
<path style="fill:#808000; stroke:none;" d="M132 91L133 92L132 91z"/>
<path style="fill:#a49e76; stroke:none;" d="M192 91C192.307 93.1227 192.382 93.686 194 95C193.436 93.248 193.081 92.4581 192 91z"/>
<path style="fill:#b0953e; stroke:none;" d="M132 92L132 96C132.71 94.2405 132.71 93.7595 132 92z"/>
<path style="fill:#b2973a; stroke:none;" d="M184 93C183.441 99.4121 181.279 105.511 181 112C183.681 107.067 186.185 98.3575 184 93z"/>
<path style="fill:#9e790c; stroke:none;" d="M185 93L185 95C186.635 94.455 186.455 94.6351 187 93L185 93z"/>
<path style="fill:#a58f55; stroke:none;" d="M187 93C188.751 94.2549 189.857 94.6137 192 95C190.25 93.7451 189.143 93.3863 187 93z"/>
<path style="fill:#b79710; stroke:none;" d="M96 94L96 98C96.7102 96.2405 96.7102 95.7595 96 94z"/>
<path style="fill:#99804d; stroke:none;" d="M114.333 96.6667C114.278 96.7222 114.222 97.7778 114.667 97.3333C114.722 97.2777 114.778 96.2223 114.333 96.6667z"/>
<path style="fill:#af8740; stroke:none;" d="M131 96L131 99C131.696 97.4463 131.696 97.5537 131 96z"/>
<path style="fill:#c6a64b; stroke:none;" d="M149 96L148 101C149.318 99.0738 149.651 98.2342 149 96z"/>
<path style="fill:#ae9330; stroke:none;" d="M166 96C165.273 101.401 163.445 106.555 163 112C165.653 107.777 167.869 100.787 166 96z"/>
<path style="fill:#c5953a; stroke:none;" d="M26 98C31.2165 100.189 38.3809 99 44 99L83 99C77.5375 96.7079 69.887 98 64 98C51.5797 98 38.2907 96.6488 26 98z"/>
<path style="fill:#9e793d; stroke:none;" d="M28 97C33.2165 99.1889 40.3809 98 46 98L84 98C78.7835 95.8111 71.6191 97 66 97L28 97z"/>
<path style="fill:#b29459; stroke:none;" d="M95 97L95 100C95.6961 98.4463 95.6961 98.5537 95 97z"/>
<path style="fill:#f5cf4a; stroke:none;" d="M99 97C97.2319 103.216 93.5713 109.173 94.0131 115.714C94.1197 117.292 93.7826 119.921 95.0347 121.139C98.6863 124.691 105.538 113.08 105.084 110.153C104.068 103.597 99.4645 111.896 99 114C94.9544 108.067 103.132 103.389 99 97z"/>
<path style="fill:#a99c67; stroke:none;" d="M83 98L84 101C84.6848 99.7516 84.7488 99.4516 85 98L83 98z"/>
<path style="fill:#a1945e; stroke:none;" d="M113 98L112 104C113.495 101.815 113.889 100.508 113 98z"/>
<path style="fill:#b4965a; stroke:none;" d="M25 99L25 115C26.8123 110.681 26.8123 103.319 25 99z"/>
<path style="fill:#dba044; stroke:none;" d="M26 99L26 154C26.0006 163.411 25.2132 172.571 26 182C28.8021 175.322 27 165.216 27 158C27 138.898 24.5103 117.797 28 99L26 99z"/>
<path style="fill:#eaae37; stroke:none;" d="M28 99C31.9586 100.661 36.7396 100 41 100L67 100C63.0414 98.3389 58.2604 99 54 99L28 99z"/>
<path style="fill:#f5bf2f; stroke:none;" d="M64 102L78 102L77 106C79.4203 104.618 80.061 103.637 81 101C76.0368 99.5193 67.5754 97.3042 64 102z"/>
<path style="fill:#ecb539; stroke:none;" d="M72 99C74.8196 100.195 77.9926 100.282 81 101C79.5909 103.564 78.5972 104.67 76 106C76.3888 110.689 74.5608 113.708 73 118C78.3553 114.503 82.6487 105.166 84 99L72 99z"/>
<path style="fill:#ffd43c; stroke:none;" d="M107 107C108.685 104.451 109.481 102.007 110 99C105.964 100.623 105.869 103.049 107 107z"/>
<path style="fill:#c9b352; stroke:none;" d="M112.333 99.6667C112.278 99.7222 112.222 100.778 112.667 100.333C112.722 100.278 112.778 99.2223 112.333 99.6667z"/>
<path style="fill:#fbd75b; stroke:none;" d="M169 99L168 107C169.993 104.369 170.275 102.07 169 99z"/>
<path style="fill:#f1b624; stroke:none;" d="M27 106C28.7706 104.138 28.9729 103.58 29 101C39.5267 104.112 53.0372 102 64 102L64 100L40 100C36.8423 100 32.2391 99.1885 29.3179 100.602C27.1196 101.665 27.1639 103.897 27 106z"/>
<path style="fill:#b89d3a; stroke:none;" d="M94 100L92 107C93.9814 104.723 94.8664 102.952 94 100z"/>
<path style="fill:#c19c3d; stroke:none;" d="M130 100C129.499 102.686 129.117 105.27 129 108C130.433 105.304 131.038 102.898 130 100z"/>
<path style="fill:#f9b42f; stroke:none;" d="M29 101C29.6641 110.788 28.6867 120.311 31 130C33.394 128.661 35.2623 128.179 38 128L42 113C45.35 113.99 48.514 113.998 52 114C51.3502 112.7 51.8532 113 50 113C56.669 111.029 63.4784 111.965 70 114C71.7238 112.944 71.9207 112.964 74 113C73.0143 114.479 73 114.203 73 116C74.9087 114.12 75.9115 112.458 77 110C75.6858 110.768 75.7679 110.686 75 112C74.7761 110.316 74.7817 109.686 75 108C64.1614 112.237 54.2094 109.348 43.054 111.147C39.068 111.79 35.9309 115.611 32 117C33.1505 114.981 34.0148 114.277 36 113C34.2309 112.221 32.9641 112.088 31 112C31.0104 108.065 32.2598 103.641 29 101z"/>
<path style="fill:#ab9036; stroke:none;" d="M83 101L83 104C84.0154 102.861 84.3087 102.388 85 101L83 101z"/>
<path style="fill:#999966; stroke:none;" d="M148.333 101.667C148.278 101.722 148.222 102.778 148.667 102.333C148.722 102.278 148.778 101.222 148.333 101.667z"/>
<path style="fill:#f8cb3a; stroke:none;" d="M31 112L36 112C33.9434 113.647 32.8471 114.541 32 117C36.574 115.888 39.5686 111.841 44.0185 111.147C54.5725 109.502 65.2151 113.383 75 108L74 112C76.5078 109.07 77.0972 105.695 78 102L45 102C41.6715 102 35.3852 100.825 32.6034 103.028C30.2536 104.888 31.002 109.374 31 112z"/>
<path style="fill:#f2c033; stroke:none;" d="M133 102C131.777 103.195 131.58 103.316 130 104C127.896 115.839 120.046 125.883 116 137C117.416 136.528 117.814 136.186 119 135C116.776 139.683 113.428 145.235 109 148C109.598 149.195 109.466 148.977 111 150C106.652 154.66 109.588 157.343 112 162C114.123 161.693 114.686 161.618 116 160C117.186 161.036 117.604 161.339 119 162C121.985 155.871 126.935 150.453 129 144L121 146L122 151C118.114 148.88 116.02 146.323 115 142L119 144C119.179 137.896 121.613 132.255 126 128L124 124L128 123C127.997 118.082 130.472 112.345 134 109C133.851 106.528 133.894 104.288 133 102z"/>
<path style="fill:#b6922a; stroke:none;" d="M111 104L111 107C111.696 105.446 111.696 105.554 111 104z"/>
<path style="fill:#bca250; stroke:none;" d="M146 104L146 108C147.267 106.457 147.489 105.952 148 104L146 104z"/>
<path style="fill:#f39d19; stroke:none;" d="M28 105C26.0286 111.862 28 120.769 28 128L28 181L33 181L31 176C32.6664 177.446 34.1188 178.87 36 180L36 176C39.8845 176.962 44.0003 176.575 48 177C49.7714 171.88 51.4703 169.677 57 171C58.7298 167.982 60.6959 165.237 62 162C63.6352 162.545 63.4549 162.365 64 164C70.6226 161.941 77.3193 155.844 81 150C77.3045 150.467 73.7352 150.969 70 151L72 147C68.8026 147.261 66.0028 147.874 63 149C64.5394 151.179 65.3555 151.573 68 152C67.4966 155.176 66.7449 156.331 64 158L63 154C59.7572 157.291 57.8369 155.82 53.9105 157.044C49.8024 158.325 46.3196 160.159 42 161C41.0637 156.526 39.6495 151.544 35 150L35 144L30 144L30 149C27.2207 139.597 29 127.782 29 118C29 113.74 29.6611 108.959 28 105z"/>
<path style="fill:#92793d; stroke:none;" d="M82 105L83 106L82 105z"/>
<path style="fill:#c9a149; stroke:none;" d="M80.3333 106.667C80.2778 106.722 80.2222 107.778 80.6667 107.333C80.7222 107.278 80.7778 106.222 80.3333 106.667z"/>
<path style="fill:#997733; stroke:none;" d="M81.3333 106.667C81.2778 106.722 81.2222 107.778 81.6667 107.333C81.7222 107.278 81.7778 106.222 81.3333 106.667z"/>
<path style="fill:#dfba54; stroke:none;" d="M110 106C109.014 107.479 109 107.203 109 109C110.766 108.021 110.955 107.778 110 106z"/>
<path style="fill:#ac8a22; stroke:none;" d="M128.333 106.667C128.278 106.722 128.222 107.778 128.667 107.333C128.722 107.278 128.778 106.222 128.333 106.667z"/>
<path style="fill:#b59b43; stroke:none;" d="M91.3333 107.667C91.2778 107.722 91.2222 108.778 91.6667 108.333C91.7222 108.278 91.7778 107.222 91.3333 107.667z"/>
<path style="fill:#e6b93a; stroke:none;" d="M144 107C140.862 112.778 141.194 119.466 136 124C136.113 128.424 134.003 131.873 131 135L132 140C139.228 130.94 143.44 118.169 146 107L144 107z"/>
<path style="fill:#a2745d; stroke:none;" d="M80.3333 108.667C80.2778 108.722 80.2222 109.778 80.6667 109.333C80.7222 109.278 80.7777 108.222 80.3333 108.667z"/>
<path style="fill:#c9a91e; stroke:none;" d="M128.333 108.667C128.278 108.722 128.222 109.778 128.667 109.333C128.722 109.278 128.778 108.222 128.333 108.667z"/>
<path style="fill:#99804d; stroke:none;" d="M146.333 108.667C146.278 108.722 146.222 109.778 146.667 109.333C146.722 109.278 146.778 108.222 146.333 108.667z"/>
<path style="fill:#f0be33; stroke:none;" d="M165 108L162 116C165.867 114.461 166.448 111.956 167 108L165 108z"/>
<path style="fill:#c6a527; stroke:none;" d="M180 108L180 112C180.71 110.24 180.71 109.759 180 108z"/>
<path style="fill:#aa8000; stroke:none;" d="M79 109L78 112C79.7662 111.021 79.9555 110.778 79 109z"/>
<path style="fill:#b69b49; stroke:none;" d="M90.3333 109.667C90.2778 109.722 90.2222 110.778 90.6667 110.333C90.7223 110.278 90.7777 109.222 90.3333 109.667z"/>
<path style="fill:#b49137; stroke:none;" d="M109 109L109 112C109.696 110.446 109.696 110.554 109 109z"/>
<path style="fill:#9a8657; stroke:none;" d="M127 109L127 112C127.696 110.446 127.696 110.554 127 109z"/>
<path style="fill:#a99b4c; stroke:none;" d="M145 109L144 116C145.466 113.55 145.965 111.706 145 109z"/>
<path style="fill:#fad765; stroke:none;" d="M167 109C164.891 117.757 158.087 132.017 166 139C168.095 133.677 171.02 128.673 172 123L167 123C167.141 118.118 169.601 113.459 167 109z"/>
<path style="fill:#f7d043; stroke:none;" d="M141 110C140.455 111.635 140.635 111.455 139 112L138 122C135.908 119.971 134.444 117.585 132 116C131.883 118.73 131.501 121.314 131 124C128.408 123.492 126.592 123.492 124 124C124.691 125.388 124.985 125.861 126 127C121.737 131.472 118.209 137.704 119 144L115 142C115.628 146.608 117.587 149.409 122 151C121.824 149.122 121.562 147.801 121 146C125.659 145.37 127.625 143.747 128 139C129.817 140.157 129.835 140.145 132 140L131 135C134.751 132.413 136.35 128.477 136 124C140.436 121.437 143.008 114.892 141 110z"/>
<path style="fill:#ca9e4e; stroke:none;" d="M89 111L86 119C88.5205 116.627 89.7945 114.239 91 111L89 111z"/>
<path style="fill:#f1c117; stroke:none;" d="M129 111L128 115C129.146 113.36 129.393 112.924 129 111z"/>
<path style="fill:#c8a33d; stroke:none;" d="M178 111C179.069 116.557 176.739 121.513 176 127C178.923 123.093 182.942 114.299 178 111z"/>
<path style="fill:#e89b30; stroke:none;" d="M27 112L27 183C33.4469 182.181 40.6431 180.838 46 177C42.6697 176.096 39.4112 176.396 36 176C35.7817 177.687 35.7761 178.316 36 180C33.3142 180.501 30.7301 180.883 28 181L28 134C28 127.314 29.5991 118.194 27 112z"/>
<path style="fill:#ecb537; stroke:none;" d="M50 112C54.0591 114.773 59.24 114 64 114L64 112L50 112z"/>
<path style="fill:#e1a82d; stroke:none;" d="M44 114C50.4449 116.704 60.0322 115 67 115L67 120C67.8094 118.05 68.7083 114.684 66.4861 113.157C64.7842 111.987 61.7878 113.66 59.9606 113.871C54.7451 114.473 49.2477 114 44 114z"/>
<path style="fill:#edbc14; stroke:none;" d="M67 121C69.0924 120.594 69.0198 120.783 70 119C71.4785 119.986 71.2032 120 73 120C73.1095 117.558 73.428 115.377 74 113C68.4488 112.011 68.1199 116.544 67 121z"/>
<path style="fill:#a78830; stroke:none;" d="M77 112L75 118C76.9087 116.12 77.9114 114.458 79 112L77 112z"/>
<path style="fill:#dcb442; stroke:none;" d="M107 112C105.105 115.262 103.664 118.276 103 122C105.335 119.182 107.618 115.71 107 112z"/>
<path style="fill:#a68c4d; stroke:none;" d="M108.333 112.667C108.278 112.722 108.222 113.778 108.667 113.333C108.722 113.278 108.778 112.222 108.333 112.667z"/>
<path style="fill:#ab9036; stroke:none;" d="M126 112C122.567 120.848 116.837 129.034 114 138C119.083 133.304 127.968 119.097 126 112z"/>
<path style="fill:#ae832f; stroke:none;" d="M162 112L162 115C162.696 113.446 162.696 113.554 162 112z"/>
<path style="fill:#e8bd30; stroke:none;" d="M176 112C175.01 124.436 167.671 134.758 166 147C173.548 139.531 178.521 122.479 179 112L176 112z"/>
<path style="fill:#f3ab00; stroke:none;" d="M42 113L41 114L42 116L44 115C43.4549 113.365 43.6352 113.545 42 113z"/>
<path style="fill:#b19345; stroke:none;" d="M107.333 114.667C107.278 114.722 107.222 115.778 107.667 115.333C107.722 115.278 107.778 114.222 107.333 114.667z"/>
<path style="fill:#aa8844; stroke:none;" d="M43 115L43 157C46.3062 149.121 44 136.534 44 128C44 123.753 43.3593 119.486 46 116C44.7516 115.315 44.4516 115.251 43 115z"/>
<path style="fill:#b4892c; stroke:none;" d="M46 115C51.4692 117.295 59.0987 116 65 116C59.5308 113.705 51.9013 115 46 115z"/>
<path style="fill:#a86b00; stroke:none;" d="M65 115L66 118C66.6848 116.752 66.7488 116.452 67 115L65 115z"/>
<path style="fill:#a18942; stroke:none;" d="M161 115L161 118C161.696 116.446 161.696 116.554 161 115z"/>
<path style="fill:#fdce42; stroke:none;" d="M164 115C162.378 118.959 162.164 122.755 162 127C164.266 123.398 165.381 119.194 166 115L164 115z"/>
<path style="fill:#aaaa55; stroke:none;" d="M25.3333 116.667C25.2778 116.722 25.2222 117.778 25.6667 117.333C25.7222 117.278 25.7778 116.222 25.3333 116.667z"/>
<path style="fill:#e9a82b; stroke:none;" d="M41 116C40.2599 125.378 40 134.569 40 144C36.1863 144.661 35.4297 146.259 35 150L40 149L40 153L42 153C41.0346 140.767 40.122 128.088 43 116L41 116z"/>
<path style="fill:#aa9955; stroke:none;" d="M106.333 116.667C106.278 116.722 106.222 117.778 106.667 117.333C106.722 117.278 106.778 116.222 106.333 116.667z"/>
<path style="fill:#b4891f; stroke:none;" d="M143.333 116.667C143.278 116.722 143.222 117.778 143.667 117.333C143.722 117.278 143.778 116.222 143.333 116.667z"/>
<path style="fill:#e7c355; stroke:none;" d="M162 116L161 120C162.303 118.332 162.553 118.008 162 116z"/>
<path style="fill:#f9d149; stroke:none;" d="M174 116C173.176 124.221 168.166 131.142 166 139C162.861 135.068 162.045 131.976 162 127C158.596 130.435 155.025 138.371 157 143L154 143C153.639 147.785 153.461 150.764 156 155C158.063 152.208 160.964 150.389 162.999 147.701C165.333 144.621 165.899 141.556 169 139C169.144 131.646 174.087 123.315 176 116L174 116z"/>
<path style="fill:#d49843; stroke:none;" d="M42 117C42 126.978 42.3487 137.025 41.9815 146.996C41.8244 151.262 38.7859 155.275 43 158L43 131C43 126.464 43.7688 121.215 42 117z"/>
<path style="fill:#ffff00; stroke:none;" d="M25 118L26 119L25 118z"/>
<path style="fill:#bf9035; stroke:none;" d="M66.3333 118.667C66.2778 118.722 66.2222 119.778 66.6667 119.333C66.7223 119.278 66.7778 118.222 66.3333 118.667z"/>
<path style="fill:#bd982a; stroke:none;" d="M73 118L73 121C74.1952 119.777 74.3164 119.58 75 118L73 118z"/>
<path style="fill:#f0b527; stroke:none;" d="M85 128C86.8247 124.736 88.807 121.54 90 118C85.5664 119.383 82.4166 123.613 85 128z"/>
<path style="fill:#b3994d; stroke:none;" d="M105.333 118.667C105.278 118.722 105.222 119.778 105.667 119.333C105.722 119.278 105.778 118.222 105.333 118.667z"/>
<path style="fill:#ffff00; stroke:none;" d="M143 118L144 119L143 118z"/>
<path style="fill:#a28613; stroke:none;" d="M160 118L160 121C160.696 119.446 160.696 119.554 160 118z"/>
<path style="fill:#ff8080; stroke:none;" d="M25 119L26 120L25 119z"/>
<path style="fill:#e4ae3f; stroke:none;" d="M70 119C68.2762 120.055 68.0793 120.036 66 120L64 128C68.0928 126.697 70.8415 123.651 73 120L70 119z"/>
<path style="fill:#c3a63c; stroke:none;" d="M85 119C83.7386 121.01 82.8102 122.778 82 125C84.1528 123.115 85.4096 121.888 85 119z"/>
<path style="fill:#a28b46; stroke:none;" d="M142.333 119.667C142.278 119.722 142.222 120.778 142.667 120.333C142.722 120.278 142.778 119.222 142.333 119.667z"/>
<path style="fill:#f3ac24; stroke:none;" d="M29 120L29 149C29.7789 147.231 29.9124 145.964 30 144C32.2942 144.303 33.2115 144.578 35 146C36.731 144.994 38.053 144.454 40 144L40 124L38 124L38 128C35.0866 128.084 33.3816 128.322 31 130C30.3817 126.672 30.3093 123.091 29 120z"/>
<path style="fill:#a98035; stroke:none;" d="M65 120L65 123C65.6961 121.446 65.6961 121.554 65 120z"/>
<path style="fill:#edcb4d; stroke:none;" d="M89 120C89.3306 123.639 89.8064 126.047 93 128C92.4563 124.586 91.5598 122.354 89 120z"/>
<path style="fill:#b08d46; stroke:none;" d="M104.333 120.667C104.278 120.722 104.222 121.778 104.667 121.333C104.722 121.278 104.778 120.222 104.333 120.667z"/>
<path style="fill:#f9c43c; stroke:none;" d="M161 120C157.57 127.703 153.325 135.929 151 144L153 144C150.928 151.662 143.358 157.971 144 166C142.521 165.014 142.797 165 141 165L140 170C148.505 172.664 157.484 159.671 158 152L156 155C154.213 150.774 153.855 147.552 154 143C155.915 144.277 155.085 144.277 157 143C156.402 141.805 156.534 142.023 155 141C158.435 136.945 163.999 124.681 161 120z"/>
<path style="fill:#9d7d31; stroke:none;" d="M72 121L73 122L72 121z"/>
<path style="fill:#a79535; stroke:none;" d="M141.333 121.667C141.278 121.722 141.222 122.778 141.667 122.333C141.722 122.278 141.778 121.222 141.333 121.667z"/>
<path style="fill:#988451; stroke:none;" d="M159 121L159 124C159.696 122.446 159.696 122.554 159 121z"/>
<path style="fill:#f0b724; stroke:none;" d="M95 126C94.7788 129.478 93.6961 132.61 93 136C97.8723 133.328 101.42 127.26 103 122C100.114 123.049 97.9051 125.175 95 126z"/>
<path style="fill:#aa8844; stroke:none;" d="M103.333 122.667C103.278 122.722 103.222 123.778 103.667 123.333C103.722 123.278 103.778 122.222 103.333 122.667z"/>
<path style="fill:#a57700; stroke:none;" d="M64 123L64 126C64.6961 124.446 64.6961 124.554 64 123z"/>
<path style="fill:#9e8744; stroke:none;" d="M68 127C69.7525 125.67 70.6697 124.753 72 123C69.7511 124.154 69.1535 124.751 68 127z"/>
<path style="fill:#92792b; stroke:none;" d="M158.333 123.667C158.278 123.722 158.222 124.778 158.667 124.333C158.722 124.278 158.778 123.222 158.333 123.667z"/>
<path style="fill:#9f8060; stroke:none;" d="M102.333 124.667C102.278 124.722 102.222 125.778 102.667 125.333C102.722 125.278 102.778 124.222 102.333 124.667z"/>
<path style="fill:#b3994d; stroke:none;" d="M140.333 124.667C140.278 124.722 140.222 125.778 140.667 125.333C140.722 125.278 140.778 124.222 140.333 124.667z"/>
<path style="fill:#eab74a; stroke:none;" d="M81 125C81.4824 127.364 81.636 127.518 84 128C84 126.203 83.9857 126.479 83 125L81 125z"/>
<path style="fill:#bfa233; stroke:none;" d="M158.333 125.667C158.278 125.722 158.222 126.778 158.667 126.333C158.722 126.278 158.778 125.222 158.333 125.667z"/>
<path style="fill:#ffff00; stroke:none;" d="M25 126L25 129C25.6961 127.446 25.6961 127.554 25 126z"/>
<path style="fill:#b2aa7c; stroke:none;" d="M63 126L62 132C64.0932 130.176 64.0395 128.529 63 126z"/>
<path style="fill:#b47c19; stroke:none;" d="M67.3333 126.667C67.2777 126.722 67.2222 127.778 67.6667 127.333C67.7222 127.278 67.7778 126.222 67.3333 126.667z"/>
<path style="fill:#bd9a3d; stroke:none;" d="M80 126C73.8243 134.59 66.4324 142.575 58 149C61.3681 149.449 63.5757 147.23 66 144.956C70.5058 140.73 80.9357 132.825 80 126z"/>
<path style="fill:#aa8732; stroke:none;" d="M101 126L102 127L101 126z"/>
<path style="fill:#b19037; stroke:none;" d="M139.333 126.667C139.278 126.722 139.222 127.778 139.667 127.333C139.722 127.278 139.778 126.222 139.333 126.667z"/>
<path style="fill:#a08025; stroke:none;" d="M157 126C154.775 132.533 150.906 138.383 149 145C153.039 141.004 158.709 131.797 157 126z"/>
<path style="fill:#c59d0f; stroke:none;" d="M175 127L175 130C175.696 128.446 175.696 128.554 175 127z"/>
<path style="fill:#e6aa3e; stroke:none;" d="M41 128L41 149C43.153 143.869 43.153 133.131 41 128z"/>
<path style="fill:#c6b64c; stroke:none;" d="M64 131C65.9225 130.098 65.9988 129.924 67 128C64.636 128.482 64.4824 128.636 64 131z"/>
<path style="fill:#f6b830; stroke:none;" d="M70 146C73.6299 146.103 77.3562 146.336 80 149C87.2154 147.11 88.1975 142.521 90 136C87.8743 136.231 86.1209 136.246 84 136C84.9857 134.521 85 134.797 85 133C81.7656 134.311 78.9767 136.188 76 138C78.3685 134.17 82.3963 132.217 84 128C76.4955 129.261 72.2854 139.435 70 146z"/>
<path style="fill:#b38d47; stroke:none;" d="M99 128L98 132C99.4336 130.607 100.045 129.767 101 128L99 128z"/>
<path style="fill:#a29144; stroke:none;" d="M138.333 128.667C138.278 128.722 138.222 129.778 138.667 129.333C138.722 129.278 138.778 128.222 138.333 128.667z"/>
<path style="fill:#808080; stroke:none;" d="M25 129L26 130L25 129z"/>
<path style="fill:#aa5555; stroke:none;" d="M66 129L67 130L66 129z"/>
<path style="fill:#bf8040; stroke:none;" d="M25 130L25 134C25.7102 132.24 25.7102 131.759 25 130z"/>
<path style="fill:#a3893b; stroke:none;" d="M137.333 130.667C137.278 130.722 137.222 131.778 137.667 131.333C137.722 131.278 137.778 130.222 137.333 130.667z"/>
<path style="fill:#c1a83e; stroke:none;" d="M174 130L172 136C173.915 133.968 174.744 132.735 174 130z"/>
<path style="fill:#b1893b; stroke:none;" d="M97 132C96.0143 133.479 96 133.203 96 135C97.2892 133.557 97.4009 133.766 97 132z"/>
<path style="fill:#b39853; stroke:none;" d="M136.333 132.667C136.278 132.722 136.222 133.778 136.667 133.333C136.722 133.278 136.778 132.222 136.333 132.667z"/>
<path style="fill:#f5b809; stroke:none;" d="M78 133L76 138C78.4714 136.719 79.2562 135.68 80 133L78 133z"/>
<path style="fill:#bf8040; stroke:none;" d="M25 135L25 140C25.8299 137.97 25.8299 137.03 25 135z"/>
<path style="fill:#e9b200; stroke:none;" d="M91 135L88 140C90.4759 138.661 91.52 137.412 93 135L91 135z"/>
<path style="fill:#aa8833; stroke:none;" d="M95 135C94.0143 136.479 94 136.203 94 138C95.2892 136.557 95.4009 136.766 95 135z"/>
<path style="fill:#fbc51b; stroke:none;" d="M118 135C116.952 136.856 116.487 137.944 116 140C117.848 138.22 118.566 137.509 118 135z"/>
<path style="fill:#c6a441; stroke:none;" d="M134 135L134 138C135.015 136.861 135.309 136.388 136 135L134 135z"/>
<path style="fill:#e7ac46; stroke:none;" d="M92 136C90.2857 138.624 88.944 141.013 88 144C91.0785 142.073 92.9749 139.478 94 136L92 136z"/>
<path style="fill:#bf8040; stroke:none;" d="M172.333 136.667C172.278 136.722 172.222 137.778 172.667 137.333C172.722 137.278 172.778 136.222 172.333 136.667z"/>
<path style="fill:#f0ae2f; stroke:none;" d="M73 137C68.1656 141.834 63.4543 146.722 58 150.87C54.4721 153.552 49.5278 155.719 48 160C52.916 158.403 59.9967 158.162 63 154L64 158C67.2053 156.715 67.7322 155.398 68 152C65.642 151.341 64.7568 150.733 63 149C65.994 148.158 68.9174 147.416 72 147C71.0427 148.517 70.6128 149.339 70 151C73.7626 150.99 77.2995 150.687 81 150L80 152C82.712 151.177 83.5381 150.433 85 148L80 149C78.2025 145.597 73.5152 146 70 146C71.4275 143.131 73.8692 140.192 73 137z"/>
<path style="fill:#e1b744; stroke:none;" d="M115 137C114.11 138.745 113.547 140.125 113 142C114.848 140.22 115.566 139.509 115 137z"/>
<path style="fill:#ae861f; stroke:none;" d="M113 138C112.014 139.479 112 139.203 112 141C113.289 139.557 113.401 139.766 113 138z"/>
<path style="fill:#aa8e39; stroke:none;" d="M133.333 138.667C133.278 138.722 133.222 139.778 133.667 139.333C133.722 139.278 133.778 138.222 133.333 138.667z"/>
<path style="fill:#a49249; stroke:none;" d="M171.333 138.667C171.278 138.722 171.222 139.778 171.667 139.333C171.722 139.278 171.778 138.222 171.333 138.667z"/>
<path style="fill:#aa8e55; stroke:none;" d="M92 139C91.0143 140.479 91 140.203 91 142C92.2892 140.557 92.4009 140.766 92 139z"/>
<path style="fill:#e5b81b; stroke:none;" d="M128 139C128.064 141.993 127.946 143.346 131 144C130.142 142.038 129.366 140.631 128 139z"/>
<path style="fill:#f5c12d; stroke:none;" d="M167 139C164.329 143.561 163.52 148.366 158 150C157.778 157.484 150.052 169.919 142 171C141.798 172.85 141.798 174.15 142 176C144.356 175.005 145.571 175.235 148 176C149.096 172.427 151.618 170.667 153.986 167.855C160.075 160.625 169.237 149.265 167 139z"/>
<path style="fill:#deb33a; stroke:none;" d="M130 140L130 143L132 143L132 140L130 140z"/>
<path style="fill:#a4925b; stroke:none;" d="M132.333 140.667C132.278 140.722 132.222 141.778 132.667 141.333C132.722 141.278 132.778 140.222 132.333 140.667z"/>
<path style="fill:#ad9952; stroke:none;" d="M170.333 140.667C170.278 140.722 170.222 141.778 170.667 141.333C170.722 141.278 170.778 140.222 170.333 140.667z"/>
<path style="fill:#cc9966; stroke:none;" d="M25.3333 141.667C25.2778 141.722 25.2222 142.778 25.6667 142.333C25.7222 142.278 25.7778 141.222 25.3333 141.667z"/>
<path style="fill:#a28c30; stroke:none;" d="M111.333 141.667C111.278 141.722 111.222 142.778 111.667 142.333C111.722 142.278 111.778 141.222 111.333 141.667z"/>
<path style="fill:#ebb916; stroke:none;" d="M112 141L112 146L114 146C113.697 143.706 113.422 142.789 112 141z"/>
<path style="fill:#a1793c; stroke:none;" d="M90 142L91 143L90 142z"/>
<path style="fill:#b59a36; stroke:none;" d="M169.333 142.667C169.278 142.722 169.222 143.778 169.667 143.333C169.722 143.278 169.778 142.222 169.333 142.667z"/>
<path style="fill:#f5b028; stroke:none;" d="M110 143C106.718 149.876 96.8696 157.618 97 165L100 164C98.3918 167.234 95.9929 169.427 95 173C98.3415 173.405 99.9713 175.411 102 178C108.479 174.106 115.324 167.653 117 160C115.269 161.006 113.947 161.546 112 162C111.302 159.835 109.4 158.073 108.946 155.872C108.336 152.915 110.166 150.88 109 148C111.283 146.554 111.582 145.689 112 143L110 143z"/>
<path style="fill:#958040; stroke:none;" d="M88 144C86.6515 145.768 85.8781 146.983 85 149C87.0153 147.356 88.0979 146.587 88 144z"/>
<path style="fill:#a8915d; stroke:none;" d="M129 144L128 148C129.434 146.607 130.045 145.767 131 144L129 144z"/>
<path style="fill:#d8af4b; stroke:none;" d="M150 144L149 148C150.146 146.36 150.393 145.924 150 144z"/>
<path style="fill:#f1b72e; stroke:none;" d="M151 144C145.494 154.251 138.297 166.832 130 175C131.506 175.683 132.315 175.826 134 176C131.916 178.59 131.3 180.697 131 184C134.058 182.517 135.816 180.609 138 178C137.735 180.964 136.445 182.987 137 186C139.16 184.38 139.962 181.785 143 183L142 184C147.499 179.647 139.109 172.448 142 167C142.097 162.739 144.788 160.379 147.174 156.985C150.16 152.738 151.995 149.088 153 144L151 144z"/>
<path style="fill:#b99938; stroke:none;" d="M168 144C167.105 146.042 166.464 147.828 166 150C167.915 147.968 168.744 146.735 168 144z"/>
<path style="fill:#cc9966; stroke:none;" d="M25 145L25 152C26.0595 149.466 26.0595 147.534 25 145z"/>
<path style="fill:#aa8c30; stroke:none;" d="M108.333 145.667C108.278 145.722 108.222 146.778 108.667 146.333C108.722 146.278 108.778 145.222 108.333 145.667z"/>
<path style="fill:#9f822a; stroke:none;" d="M148 145L147 149C148.303 147.332 148.553 147.008 148 145z"/>
<path style="fill:#b78d22; stroke:none;" d="M107 147C106.043 148.517 105.613 149.339 105 151C106.86 149.735 107.369 149.223 107 147z"/>
<path style="fill:#b99723; stroke:none;" d="M127.333 148.667C127.278 148.722 127.222 149.778 127.667 149.333C127.722 149.278 127.778 148.222 127.333 148.667z"/>
<path style="fill:#f1a600; stroke:none;" d="M38 149L38 153L40 153L40 149L38 149z"/>
<path style="fill:#987c30; stroke:none;" d="M84 149L85 150L84 149z"/>
<path style="fill:#c29c4c; stroke:none;" d="M126.333 149.667C126.278 149.722 126.222 150.778 126.667 150.333C126.722 150.278 126.778 149.222 126.333 149.667z"/>
<path style="fill:#aa8e34; stroke:none;" d="M146.333 149.667C146.278 149.722 146.222 150.778 146.667 150.333C146.722 150.278 146.778 149.222 146.333 149.667z"/>
<path style="fill:#c59a20; stroke:none;" d="M56 152C57.58 151.316 57.7772 151.195 59 150C57.42 150.684 57.2228 150.805 56 152z"/>
<path style="fill:#b59d40; stroke:none;" d="M165.333 150.667C165.278 150.722 165.222 151.778 165.667 151.333C165.722 151.278 165.778 150.222 165.333 150.667z"/>
<path style="fill:#808080; stroke:none;" d="M55 151L56 152L55 151z"/>
<path style="fill:#b29134; stroke:none;" d="M104 151C102.652 152.768 101.878 153.983 101 156C103.015 154.356 104.098 153.587 104 151z"/>
<path style="fill:#aa9249; stroke:none;" d="M125.333 151.667C125.278 151.722 125.222 152.778 125.667 152.333C125.722 152.278 125.778 151.222 125.333 151.667z"/>
<path style="fill:#bc9637; stroke:none;" d="M145 151L145 154C145.696 152.446 145.696 152.554 145 151z"/>
<path style="fill:#b69249; stroke:none;" d="M25 152L25 163C26.4309 159.59 26.4309 155.41 25 152z"/>
<path style="fill:#c0923b; stroke:none;" d="M48 156C51.5806 156.825 53.7693 154.665 56 152C53.1678 153.069 50.6563 154.545 48 156z"/>
<path style="fill:#b38d41; stroke:none;" d="M80 152L80 154C81.6352 153.455 81.4549 153.635 82 152L80 152z"/>
<path style="fill:#dcaf4a; stroke:none;" d="M123 152L123 154L125 154L125 152L123 152z"/>
<path style="fill:#b28103; stroke:none;" d="M144 152L144 155C144.696 153.446 144.696 153.554 144 152z"/>
<path style="fill:#aa923d; stroke:none;" d="M164.333 152.667C164.278 152.722 164.222 153.778 164.667 153.333C164.722 153.278 164.778 152.222 164.333 152.667z"/>
<path style="fill:#e4ad3b; stroke:none;" d="M74 158C76.4372 156.543 78.4045 155.336 80 153C76.7971 153.98 75.0998 154.781 74 158z"/>
<path style="fill:#ae8643; stroke:none;" d="M123.333 154.667C123.278 154.722 123.222 155.778 123.667 155.333C123.722 155.278 123.778 154.222 123.333 154.667z"/>
<path style="fill:#a08a5a; stroke:none;" d="M143.333 154.667C143.278 154.722 143.222 155.778 143.667 155.333C143.722 155.278 143.778 154.222 143.333 154.667z"/>
<path style="fill:#ad9240; stroke:none;" d="M163.333 154.667C163.278 154.722 163.222 155.778 163.667 155.333C163.722 155.278 163.778 154.222 163.333 154.667z"/>
<path style="fill:#b1804e; stroke:none;" d="M66 164C71.1791 165.059 76.2325 158.848 79 155C74.0913 157.108 70.427 161.059 66 164z"/>
<path style="fill:#c89b3b; stroke:none;" d="M100 156C97.4552 158.564 95.0758 161.048 93 164C96.4352 162.393 100.086 160.074 100 156z"/>
<path style="fill:#a68835; stroke:none;" d="M122 156L123 157L122 156z"/>
<path style="fill:#9f8035; stroke:none;" d="M142 156C141.014 157.479 141 157.203 141 159C142.289 157.557 142.401 157.766 142 156z"/>
<path style="fill:#ddbc46; stroke:none;" d="M143.333 156.667C143.278 156.722 143.222 157.778 143.667 157.333C143.722 157.278 143.778 156.222 143.333 156.667z"/>
<path style="fill:#af8f50; stroke:none;" d="M162.333 156.667C162.278 156.722 162.222 157.778 162.667 157.333C162.722 157.278 162.778 156.222 162.333 156.667z"/>
<path style="fill:#c77d00; stroke:none;" d="M43 157C42.1457 159.697 42.1492 160.386 45 161C44.4361 159.248 44.0811 158.458 43 157z"/>
<path style="fill:#cf9a4c; stroke:none;" d="M47 157C45.9644 158.186 45.6614 158.604 45 160C47.2508 159.527 48.1178 159.14 47 157z"/>
<path style="fill:#b18927; stroke:none;" d="M121 157C120.014 158.479 120 158.203 120 160C121.289 158.557 121.401 158.766 121 157z"/>
<path style="fill:#f49e00; stroke:none;" d="M32 158L32 160L36 160L36 158L32 158z"/>
<path style="fill:#cc9933; stroke:none;" d="M161 158C160.014 159.479 160 159.203 160 161C161.289 159.557 161.401 159.766 161 158z"/>
<path style="fill:#bdb27d; stroke:none;" d="M172 160L175 160L174 158C172.365 158.545 172.545 158.365 172 160z"/>
<path style="fill:#a87d34; stroke:none;" d="M140 159C138.739 161.01 137.81 162.778 137 165C139.153 163.115 140.41 161.888 140 159z"/>
<path style="fill:#a68841; stroke:none;" d="M119 160L120 161L119 160z"/>
<path style="fill:#be9432; stroke:none;" d="M171 160C167.43 166.707 162.906 172.958 160 180C164.635 177.205 172.282 165.479 171 160z"/>
<path style="fill:#e5c555; stroke:none;" d="M172 160L172 163C173.015 161.861 173.309 161.388 174 160L172 160z"/>
<path style="fill:#a58228; stroke:none;" d="M174 160L174 173C175.591 169.209 175.591 163.791 174 160z"/>
<path style="fill:#b68924; stroke:none;" d="M159.333 161.667C159.278 161.722 159.222 162.778 159.667 162.333C159.722 162.278 159.778 161.222 159.333 161.667z"/>
<path style="fill:#d1a92c; stroke:none;" d="M173 161L173 178C174.883 173.514 174.883 165.486 173 161z"/>
<path style="fill:#ebaa2e; stroke:none;" d="M62 162L57 170C61.4484 169.026 64.3329 166.548 68 164C66.1908 163.426 65.9312 163.535 64 164C63.2321 162.686 63.3142 162.768 62 162z"/>
<path style="fill:#b08d4f; stroke:none;" d="M117 162C116.043 163.517 115.613 164.339 115 166C116.63 164.485 117.163 164.145 117 162z"/>
<path style="fill:#f2b51b; stroke:none;" d="M141 163L141 165L144 166L144 162C142.203 162 142.479 162.014 141 163z"/>
<path style="fill:#b79750; stroke:none;" d="M158 162L157 166C158.303 164.332 158.553 164.008 158 162z"/>
<path style="fill:#eca82d; stroke:none;" d="M95 163C89.6176 168.382 81.4292 173.647 79 181C76.5303 180.772 75.3398 181.075 73 182C72.9529 184.172 72.6057 185.912 72 188L78 186L77 182C79.0417 182.895 80.8278 183.536 83 184C85.1197 176.116 97.8325 173.204 95 163z"/>
<path style="fill:#e8be33; stroke:none;" d="M171 163C167.685 168.62 164.828 175.603 160 180C165.009 181.085 167.608 172.173 173 171L173 163L171 163z"/>
<path style="fill:#bf8040; stroke:none;" d="M25.3333 164.667C25.2778 164.722 25.2222 165.778 25.6667 165.333C25.7222 165.278 25.7778 164.222 25.3333 164.667z"/>
<path style="fill:#b18526; stroke:none;" d="M80 175C85.6805 175.757 91.043 168.198 94 164C88.5905 166.523 84.7325 171.394 80 175z"/>
<path style="fill:#f4b014; stroke:none;" d="M96 164L95 170C97.576 168.241 99.0689 167.001 100 164L96 164z"/>
<path style="fill:#f2bb3f; stroke:none;" d="M156 164C153.534 167.509 150.165 170.392 148 174C152.644 172.386 157.135 169.507 156 164z"/>
<path style="fill:#9f7830; stroke:none;" d="M64 168C65.4567 166.897 65.8966 166.457 67 165C64.8764 165.899 64.8993 165.876 64 168z"/>
<path style="fill:#b08c2b; stroke:none;" d="M136 165C135.043 166.517 134.613 167.339 134 169C135.63 167.485 136.163 167.145 136 165z"/>
<path style="fill:#f39e24; stroke:none;" d="M94 166C93.7408 168.946 93.4381 172.175 91.2971 174.451C88.3329 177.601 84.9229 177.714 83 182C85.2974 182.674 85.7741 182.965 87 185C85.8137 183.964 85.3964 183.661 84 183C81.6001 187.552 79.7426 190.75 75 193L78 196C76.0478 195.489 75.543 195.267 74 194C73.3152 195.248 73.2512 195.548 73 197C70.7474 195.637 69.6349 195.663 67 196C69.9354 201.523 74.078 199.415 78.6998 196.765C83.9587 193.749 87.6293 189.346 92.3789 185.972C96.9908 182.696 100.533 182.119 102 176C99.5205 174.329 97.9799 173.106 95 173L96 166L94 166z"/>
<path style="fill:#b38c59; stroke:none;" d="M156.333 166.667C156.278 166.722 156.222 167.778 156.667 167.333C156.722 167.278 156.778 166.222 156.333 166.667z"/>
<path style="fill:#bf8040; stroke:none;" d="M113 167C112.014 168.479 112 168.203 112 170C113.289 168.557 113.401 168.766 113 167z"/>
<path style="fill:#a17943; stroke:none;" d="M60 171C61.4566 169.897 61.8966 169.457 63 168C60.8764 168.899 60.8993 168.876 60 171z"/>
<path style="fill:#f4a500; stroke:none;" d="M50 170C51.769 170.779 53.0359 170.912 55 171C52.9899 169.526 52.478 169.535 50 170z"/>
<path style="fill:#daa32c; stroke:none;" d="M110 169L110 172C111.195 170.777 111.316 170.58 112 169L110 169z"/>
<path style="fill:#af8c35; stroke:none;" d="M133 169C132.014 170.479 132 170.203 132 172C133.289 170.557 133.401 170.766 133 169z"/>
<path style="fill:#aaaa55; stroke:none;" d="M25 170L25 173C25.6961 171.446 25.6961 171.554 25 170z"/>
<path style="fill:#b58634; stroke:none;" d="M55 173C56.875 172.453 58.2553 171.89 60 171C57.4913 170.434 56.7802 171.152 55 173z"/>
<path style="fill:#efb425; stroke:none;" d="M163 181L168 182C167.064 185.012 166.325 186.866 164 189L165 182C163.058 184.56 163.035 186.808 163 190C169.189 192.85 168 199.086 168 205C168 211.794 169.888 217.377 170.714 224C171.369 229.259 171 234.708 171 240L173 240L173 194C173 186.278 174.198 177.435 172 170C167.283 172.305 164.997 176.268 163 181z"/>
<path style="fill:#e79f28; stroke:none;" d="M48 176C50.8891 175.027 53.3474 173.503 56 172C51.904 170.33 49.6051 172.169 48 176z"/>
<path style="fill:#808080; stroke:none;" d="M131 171L132 172L131 171z"/>
<path style="fill:#ff0000; stroke:none;" d="M57 172L58 173L57 172z"/>
<path style="fill:#aa8747; stroke:none;" d="M109 172L110 173L109 172z"/>
<path style="fill:#d3a54c; stroke:none;" d="M131 172L131 174L133 174L133 172L131 172z"/>
<path style="fill:#d2a439; stroke:none;" d="M151 172C150.119 174.021 149.504 175.854 149 178C151.02 176.104 151.995 174.585 153 172L151 172z"/>
<path style="fill:#bf8040; stroke:none;" d="M25 173L25 177C25.7102 175.241 25.7102 174.759 25 173z"/>
<path style="fill:#c4944f; stroke:none;" d="M52 173L52 175L54 175L54 173L52 173z"/>
<path style="fill:#926d49; stroke:none;" d="M54.6667 173.333C54.2222 173.778 55.2778 173.722 55.3333 173.667C55.7778 173.222 54.7222 173.278 54.6667 173.333z"/>
<path style="fill:#b38c3a; stroke:none;" d="M130 173C129.043 174.517 128.613 175.339 128 177C129.63 175.485 130.163 175.145 130 173z"/>
<path style="fill:#b38f42; stroke:none;" d="M174 173L174 246C176.292 240.538 175 232.887 175 227L175 191C175 185.381 176.189 178.216 174 173z"/>
<path style="fill:#eeb51c; stroke:none;" d="M143 174L144 180L149 179L150 174C148.686 174.768 148.768 174.686 148 176L146 176C145.02 174.217 145.092 174.406 143 174z"/>
<path style="fill:#b07b23; stroke:none;" d="M50.6667 175.333C50.2222 175.778 51.2778 175.722 51.3333 175.667C51.7778 175.222 50.7222 175.278 50.6667 175.333z"/>
<path style="fill:#ef9f00; stroke:none;" d="M31 176L33 181C33.7101 178.469 33.1314 177.484 31 176z"/>
<path style="fill:#937645; stroke:none;" d="M48.6667 176.333C48.2222 176.778 49.2778 176.722 49.3333 176.667C49.7777 176.222 48.7222 176.278 48.6667 176.333z"/>
<path style="fill:#c48c3c; stroke:none;" d="M79 176C78.0427 177.517 77.6128 178.339 77 180C78.63 178.485 79.1631 178.145 79 176z"/>
<path style="fill:#d9aa45; stroke:none;" d="M103.333 176.667C103.278 176.722 103.222 177.778 103.667 177.333C103.722 177.278 103.778 176.222 103.333 176.667z"/>
<path style="fill:#b18e3b; stroke:none;" d="M104 176L104 178C105.635 177.455 105.455 177.635 106 176L104 176z"/>
<path style="fill:#f2ae13; stroke:none;" d="M128 184L134 177C128.633 174.961 128.051 179.719 128 184z"/>
<path style="fill:#9e7c22; stroke:none;" d="M161.333 176.667C161.278 176.722 161.222 177.778 161.667 177.333C161.722 177.278 161.778 176.222 161.333 176.667z"/>
<path style="fill:#b57b21; stroke:none;" d="M46.6667 177.333C46.2222 177.778 47.2778 177.722 47.3333 177.667C47.7777 177.222 46.7222 177.278 46.6667 177.333z"/>
<path style="fill:#ff0000; stroke:none;" d="M77 177L78 178L77 177z"/>
<path style="fill:#b98e31; stroke:none;" d="M127 177C123.872 180.138 120.881 182.966 119 187C122.38 184.617 127.094 181.422 127 177z"/>
<path style="fill:#bf8040; stroke:none;" d="M25.3333 178.667C25.2778 178.722 25.2222 179.778 25.6667 179.333C25.7222 179.278 25.7778 178.222 25.3333 178.667z"/>
<path style="fill:#a37a3d; stroke:none;" d="M44.6667 178.333C44.2222 178.778 45.2778 178.722 45.3333 178.667C45.7778 178.222 44.7222 178.278 44.6667 178.333z"/>
<path style="fill:#b2832f; stroke:none;" d="M76 178C74.1983 179.666 73.1097 180.846 72 183C74.404 181.671 76.084 180.825 76 178z"/>
<path style="fill:#eba44a; stroke:none;" d="M79 178C78.0143 179.479 78 179.203 78 181C79.2892 179.557 79.4009 179.766 79 178z"/>
<path style="fill:#f0a603; stroke:none;" d="M88 178L88 180L92 180L92 178L88 178z"/>
<path style="fill:#b58f45; stroke:none;" d="M100 182C101.753 180.67 102.67 179.753 104 178C101.751 179.154 101.154 179.751 100 182z"/>
<path style="fill:#f5ab24; stroke:none;" d="M137 178C135.143 180.395 133.438 182.21 131 184L131 180C129.919 181.458 129.564 182.248 129 184C128.014 182.521 128 182.797 128 181C126.089 182.893 125.862 183.333 126 186C122.167 187.267 119.649 191.017 117 194C122.575 195.409 126.575 193.368 131 198L133 198L134 197L134 195L131 194C131.545 192.365 131.365 192.545 133 192L131 187L135 187L134 192C137.815 190.813 139.923 187.486 143 185L143 182C140.256 182.755 138.926 183.903 137 186C136.951 183.052 138.37 180.615 137 178z"/>
<path style="fill:#dea739; stroke:none;" d="M173 178L173 245L168 245C170.052 245.874 171.747 245.953 174 246L174 199C174 192.58 175.497 183.951 173 178z"/>
<path style="fill:#c08738; stroke:none;" d="M38 180C40.2393 180.811 41.647 180.529 44 180C41.7607 179.189 40.353 179.471 38 180z"/>
<path style="fill:#eaa731; stroke:none;" d="M127 179C120.736 185.26 114.58 191.922 107.999 197.826C104.166 201.265 98.9083 203.761 96 208C102.408 207.132 110.015 202.341 112 196L116 196L116 192C120.55 191.303 122.204 188.04 126 186C126.353 183.601 127.231 181.362 127 179z"/>
<path style="fill:#dcab47; stroke:none;" d="M145 179L144 184C145.84 182.283 146.349 181.434 147 179L145 179z"/>
<path style="fill:#aa9555; stroke:none;" d="M147.333 179.667C147.278 179.722 147.222 180.778 147.667 180.333C147.722 180.278 147.778 179.222 147.333 179.667z"/>
<path style="fill:#a68b4f; stroke:none;" d="M159.333 179.667C159.278 179.722 159.222 180.778 159.667 180.333C159.722 180.278 159.778 179.222 159.333 179.667z"/>
<path style="fill:#ffff00; stroke:none;" d="M25 180L25 184C25.7102 182.241 25.7102 181.759 25 180z"/>
<path style="fill:#b0752b; stroke:none;" d="M34 182C36.2393 182.811 37.647 182.529 40 182C37.7607 181.189 36.353 181.471 34 182z"/>
<path style="fill:#ad8a28; stroke:none;" d="M158 181C155.68 184.242 153.434 187.271 152 191C155.078 188.492 158.575 185.193 158 181z"/>
<path style="fill:#f1bb34; stroke:none;" d="M159 181C156.495 186.03 153.054 191.1 149 195C152.849 196.557 155.45 195.029 158 192L156 192C157.501 189.887 157.822 188.597 158 186L160 187C159.953 184.747 159.874 183.052 159 181z"/>
<path style="fill:#f5af1e; stroke:none;" d="M160 181L160 187L158 186L158 191C159.3 190.35 159 190.853 159 189C160.183 191.367 160.426 192.624 159 195L158 194C159.825 198.764 160 202.927 160 208L166 212C166 201.632 162.128 191.237 164 181L160 181z"/>
<path style="fill:#f3b640; stroke:none;" d="M164 181L164 189C166.989 187.253 167.526 185.358 168 182L164 181z"/>
<path style="fill:#deac6e; stroke:none;" d="M26 182C26.4057 184.092 26.2167 184.02 28 185C27.3087 183.612 27.0154 183.139 26 182z"/>
<path style="fill:#cf9349; stroke:none;" d="M27 183C29.5231 183.99 31.3583 183.617 34 183C31.5401 182.112 29.5851 182.533 27 183z"/>
<path style="fill:#ad771a; stroke:none;" d="M66 185C68.8883 185.41 70.1145 184.153 72 182C69.7778 182.81 68.0098 183.739 66 185z"/>
<path style="fill:#f49d10; stroke:none;" d="M77 182L78 186C70.0525 188.614 62.7989 193.824 55 197C58.4741 198.462 61.7714 197.562 64 201L71 202L67 196C69.1099 195.992 70.1698 196.051 72 197C72.6848 195.752 72.7488 195.452 73 194C74.8255 195.336 75.7528 195.69 78 196C77.1193 194.27 76.7425 194.111 75 193C80.1915 191.284 82.1691 188.026 84 183C85.6352 183.545 85.4549 183.365 86 185C87.4196 181.251 79.7872 182.745 77 182z"/>
<path style="fill:#a88333; stroke:none;" d="M99 182L100 183L99 182z"/>
<path style="fill:#986e37; stroke:none;" d="M28 186L35 184C32.1182 183.123 29.9014 183.647 28 186z"/>
<path style="fill:#f09d23; stroke:none;" d="M41 201C46.52 202.623 52.5959 199.821 56 206L45 206L45 210C39.5775 210.215 33.3168 208.267 28 207C28.8037 210.564 29.3629 213.308 29 217C35.7356 216.996 41.7796 216.229 48.0394 213.619C53.6597 211.276 57.7151 208.288 64 208C65.2894 205.459 66.9284 203.946 69 202C66.8959 201.124 66.2477 200.954 64 201C63.0964 196.783 58.644 198 55 198C60.8074 194.532 66.9755 192.04 73 189L72 186L74 186L74 184C68.477 183.634 64.4684 187.625 60.0394 190.548C53.9964 194.536 47.4836 197.816 41 201z"/>
<path style="fill:#bb8944; stroke:none;" d="M92 189C94.7769 187.255 96.9348 185.543 99 183C95.5828 184.337 93.6773 185.723 92 189z"/>
<path style="fill:#af8a42; stroke:none;" d="M143 184C142.014 185.479 142 185.203 142 187C143.289 185.557 143.401 185.766 143 184z"/>
<path style="fill:#a88057; stroke:none;" d="M26.6667 185.333C26.2222 185.778 27.2778 185.722 27.3333 185.667C27.7778 185.222 26.7222 185.278 26.6667 185.333z"/>
<path style="fill:#e9a843; stroke:none;" d="M91 185L90 189C91.9813 187.84 92.74 186.951 94 185L91 185z"/>
<path style="fill:#ba801b; stroke:none;" d="M63 188C64.58 187.316 64.7772 187.195 66 186C64.42 186.684 64.2228 186.805 63 188z"/>
<path style="fill:#ff0000; stroke:none;" d="M95 186L96 187L95 186M118 186L119 187L118 186z"/>
<path style="fill:#dcb649; stroke:none;" d="M140 186L138 190C140.118 188.782 140.845 188.133 142 186L140 186z"/>
<path style="fill:#ff0000; stroke:none;" d="M62 187L63 188L62 187z"/>
<path style="fill:#ab8028; stroke:none;" d="M118 187L119 188L118 187z"/>
<path style="fill:#f7a935; stroke:none;" d="M131 187C131.564 188.752 131.919 189.542 133 191C131.964 192.186 131.661 192.604 131 194C133.423 194.181 133.758 194.056 136 193C135.162 190.882 134.992 189.286 135 187L131 187z"/>
<path style="fill:#9a7035; stroke:none;" d="M47 195C52.0917 196.396 59.8207 191.857 63 188C57.3785 189.619 52.3855 192.758 47 195z"/>
<path style="fill:#bd8442; stroke:none;" d="M88 192L92 190C89.6918 189.442 89.2436 190.004 88 192z"/>
<path style="fill:#b0883e; stroke:none;" d="M139 189C136.87 191.279 135.299 193.181 134 196C136.643 194.08 139.076 192.392 139 189z"/>
<path style="fill:#efb600; stroke:none;" d="M159 189C157.777 190.195 157.58 190.316 156 191C156.598 192.195 156.466 191.977 158 193C156.686 193.768 156.768 193.686 156 195L160 195C159.953 192.747 159.874 191.052 159 189z"/>
<path style="fill:#f6b030; stroke:none;" d="M164 190C164.051 196.124 165.873 201.896 166 208C168.758 202.812 169.968 193.129 164 190z"/>
<path style="fill:#a78132; stroke:none;" d="M113.667 191.333C113.222 191.778 114.278 191.722 114.333 191.667C114.778 191.222 113.722 191.278 113.667 191.333z"/>
<path style="fill:#b28920; stroke:none;" d="M151 191C150.014 192.479 150 192.203 150 194C151.766 193.021 151.955 192.778 151 191z"/>
<path style="fill:#e8a443; stroke:none;" d="M83 192L83 194L86 194L86 192L83 192z"/>
<path style="fill:#997744; stroke:none;" d="M86 192L86 194C87.6352 193.455 87.4549 193.635 88 192L86 192z"/>
<path style="fill:#b7830b; stroke:none;" d="M112 192L112 194C113.635 193.455 113.455 193.635 114 192L112 192z"/>
<path style="fill:#f29d1e; stroke:none;" d="M116 192L116 196L112 196C108.969 201.919 102.445 206.5 96 208C97.2224 209.733 98.0088 210.151 100 211C98.519 212.598 97.9385 213.108 96 214C97.006 215.731 97.5465 217.053 98 219C102.015 219.116 105.399 220.538 107 216L112 216C113.326 211.666 116.233 210.812 119.545 208.117C123.901 204.573 127.508 200.387 129 195C126.955 194.139 116.469 194.582 119 193C117.752 192.315 117.452 192.251 116 192z"/>
<path style="fill:#d59a47; stroke:none;" d="M50 195C52.4621 195.697 53.6654 195.11 56 194C53.7264 193.591 52.2191 194.212 50 195z"/>
<path style="fill:#b3862d; stroke:none;" d="M111 193C107.62 196.311 103.871 199.246 101 203C105.12 201.256 111.105 197.951 111 193z"/>
<path style="fill:#9f732e; stroke:none;" d="M149 193C148.043 194.517 147.613 195.339 147 197C148.859 195.735 149.369 195.223 149 193z"/>
<path style="fill:#d79e39; stroke:none;" d="M64 205C70.2788 206.051 79.7752 198.297 85 195C78.7196 193.276 69.2372 201.9 64 205z"/>
<path style="fill:#fea533; stroke:none;" d="M129 195L128 199C129.797 199 129.521 198.986 131 198C130.309 196.612 130.015 196.139 129 195z"/>
<path style="fill:#9e7212; stroke:none;" d="M155 195L155 197L158 197L158 195L155 195z"/>
<path style="fill:#ae721a; stroke:none;" d="M43 199C44.9486 198.064 45.5502 197.608 47 196C45.0514 196.936 44.4498 197.392 43 199z"/>
<path style="fill:#d6902a; stroke:none;" d="M46 197C47.6593 197.406 48.2418 197.309 50 197C48.1908 196.426 47.9312 196.535 46 197z"/>
<path style="fill:#eab25c; stroke:none;" d="M147 199C148.949 198.064 149.55 197.608 151 196C149.051 196.936 148.45 197.392 147 199z"/>
<path style="fill:#bb8d2f; stroke:none;" d="M150 197C152.044 197.774 152.845 197.592 155 197C152.956 196.226 152.155 196.408 150 197z"/>
<path style="fill:#f8b93f; stroke:none;" d="M158 196L158 202L160 202L160 196L158 196z"/>
<path style="fill:#a77435; stroke:none;" d="M28 202C33.1328 203.836 39.454 200.421 44 198C39.0388 197.13 32.9501 200.855 28 202z"/>
<path style="fill:#af8d4d; stroke:none;" d="M146 197L146 200L148 200L148 197L146 197z"/>
<path style="fill:#c29441; stroke:none;" d="M157 197L157 203C157.951 200.715 157.951 199.285 157 197z"/>
<path style="fill:#ff0000; stroke:none;" d="M39 198L40 199L39 198z"/>
<path style="fill:#aa802b; stroke:none;" d="M78.6667 198.333C78.2222 198.778 79.2778 198.722 79.3333 198.667C79.7778 198.222 78.7222 198.278 78.6667 198.333z"/>
<path style="fill:#e2a441; stroke:none;" d="M128 201L132 199C129.777 198.631 129.265 199.14 128 201z"/>
<path style="fill:#917e43; stroke:none;" d="M145 198L144 201L148 201C147.027 199.73 146.27 198.973 145 198z"/>
<path style="fill:#8f702c; stroke:none;" d="M148 199C149.809 199.574 150.069 199.465 152 199C150.191 198.426 149.931 198.535 148 199z"/>
<path style="fill:#e79d38; stroke:none;" d="M27 204C27 212.244 25.3943 219.874 36 218C33.6684 217.015 31.5433 217.019 29 217C29.8962 211.91 26.94 205.729 34 206C37.0834 202.753 40.8666 201.553 45 200C39.1418 197.923 32.8762 203.248 27 204z"/>
<path style="fill:#ad8038; stroke:none;" d="M74 202L78 200C75.7774 199.631 75.2655 200.14 74 202z"/>
<path style="fill:#ff0000; stroke:none;" d="M33 200L34 201L33 200z"/>
<path style="fill:#f99c14; stroke:none;" d="M34 206C31.3262 205.458 30.2691 205.493 28 207C33.1116 208.515 39.6999 210.511 45 210L45 206L56 206C53.3677 198.062 37.8005 199.978 34 206z"/>
<path style="fill:#aa8055; stroke:none;" d="M129 200L128 202L130 202C130 200.147 130.3 200.65 129 200z"/>
<path style="fill:#ff0000; stroke:none;" d="M130 200L131 201L130 200z"/>
<path style="fill:#e4a741; stroke:none;" d="M121 208C124.4 206.34 126.098 204.256 128 201C124.096 202.342 122.149 204.001 121 208z"/>
<path style="fill:#ff0000; stroke:none;" d="M145 201L146 202L145 201z"/>
<path style="fill:#aa802b; stroke:none;" d="M126 204C127.58 203.316 127.777 203.195 129 202C127.42 202.684 127.223 202.805 126 204z"/>
<path style="fill:#eaae3a; stroke:none;" d="M158 202L158 230L160 230L160 202L158 202z"/>
<path style="fill:#808080; stroke:none;" d="M26 203L27 204L26 203z"/>
<path style="fill:#c99041; stroke:none;" d="M27 203C28.769 203.779 30.0359 203.912 32 204C30.231 203.221 28.9641 203.088 27 203z"/>
<path style="fill:#8e7139; stroke:none;" d="M70.6667 203.333C70.2222 203.778 71.2778 203.722 71.3333 203.667C71.7778 203.222 70.7222 203.278 70.6667 203.333z"/>
<path style="fill:#ae832b; stroke:none;" d="M97 206C98.9485 205.064 99.5502 204.608 101 203C99.0514 203.936 98.4498 204.392 97 206z"/>
<path style="fill:#b1893b; stroke:none;" d="M156 203L156 224C158.153 218.869 158.153 208.131 156 203z"/>
<path style="fill:#ca9023; stroke:none;" d="M157 203L157 224C159.153 218.869 159.153 208.131 157 203z"/>
<path style="fill:#de9e4e; stroke:none;" d="M26 204C25.436 209.284 26 214.681 26 220L31 220C25.9309 214.878 28.5005 209.959 26 204z"/>
<path style="fill:#a46d37; stroke:none;" d="M68.6667 204.333C68.2222 204.778 69.2778 204.722 69.3333 204.667C69.7778 204.222 68.7222 204.278 68.6667 204.333z"/>
<path style="fill:#ff0000; stroke:none;" d="M126 204L127 205L126 204z"/>
<path style="fill:#f4a129; stroke:none;" d="M167 204C166.151 210.716 166 217.229 166 224L168 224C168 217.831 169.398 209.715 167 204z"/>
<path style="fill:#aa8055; stroke:none;" d="M25.3333 205.667C25.2778 205.722 25.2222 206.778 25.6667 206.333C25.7222 206.278 25.7778 205.222 25.3333 205.667z"/>
<path style="fill:#a2743a; stroke:none;" d="M66.6667 205.333C66.2222 205.778 67.2778 205.722 67.3333 205.667C67.7778 205.222 66.7222 205.278 66.6667 205.333z"/>
<path style="fill:#a47637; stroke:none;" d="M64 206L64 208C65.6352 207.455 65.4549 207.635 66 206L64 206z"/>
<path style="fill:#9e8152; stroke:none;" d="M94.6667 207.333C94.2222 207.778 95.2778 207.722 95.3333 207.667C95.7778 207.222 94.7222 207.278 94.6667 207.333z"/>
<path style="fill:#b3804d; stroke:none;" d="M25 208L25 218C26.3457 214.793 26.3457 211.207 25 208z"/>
<path style="fill:#da953d; stroke:none;" d="M53 210C55.8506 210.844 58.1829 209.889 61 209C58.1494 208.156 55.8171 209.111 53 210z"/>
<path style="fill:#aa7155; stroke:none;" d="M61.6667 208.333C61.2222 208.778 62.2778 208.722 62.3333 208.667C62.7778 208.222 61.7222 208.278 61.6667 208.333z"/>
<path style="fill:#c38219; stroke:none;" d="M93.6667 208.333C93.2222 208.778 94.2778 208.722 94.3333 208.667C94.7778 208.222 93.7222 208.278 93.6667 208.333z"/>
<path style="fill:#ed9e28; stroke:none;" d="M95 208L85 215C87.3226 215.921 88.5805 215.687 91 215C92.5877 218.226 95.0788 220.452 96 224C93.3521 224.866 92.9165 225.23 93 228L89 227C92.626 231.881 104.602 223.212 107 219L97 219C95.7034 217.08 95.2089 216.684 93 216C93.9857 214.521 94 214.797 94 213L99 214L100 211L95 208z"/>
<path style="fill:#a78435; stroke:none;" d="M118 212C119.753 210.67 120.67 209.753 122 208C119.751 209.154 119.154 209.751 118 212z"/>
<path style="fill:#f59e16; stroke:none;" d="M160 208L160 230L157 229L156 233C153.132 233.287 150.706 234.009 148 235C145.565 232.214 141.516 233 138 233L112 233C115.699 234.552 120.017 234 124 234L144 234L144 236L119 236C114.633 236.002 110.56 235.299 109 240C105.329 239.959 101.588 238.173 98.0802 238.388C92.0443 238.759 86.2474 240 80 240C87.1123 243.012 96.397 242 104 242L147 242C153.588 242 164.733 239.219 170 243L173 241C169.368 234.469 170.32 223.447 170 216L168 216L168 224L166 224C166 219.011 166.353 214.522 164 210C161.954 216.652 164.701 224.857 163 232C160.801 224.562 162 215.729 162 208L160 208z"/>
<path style="fill:#ef9f05; stroke:none;" d="M162 208L162 232C166.028 226.684 164.805 213.838 162 208z"/>
<path style="fill:#99804d; stroke:none;" d="M59.6667 209.333C59.2222 209.778 60.2778 209.722 60.3333 209.667C60.7778 209.222 59.7222 209.278 59.6667 209.333z"/>
<path style="fill:#af7c3a; stroke:none;" d="M64 226C68.4478 225.696 72.1337 223.173 76 221.003C82.0991 217.58 88.61 214.612 93 209C88.0037 211.074 83.6611 214.404 79 217.139C74.0596 220.037 68.4003 222.354 64 226z"/>
<path style="fill:#f3a431; stroke:none;" d="M112 214C115.307 212.997 117.147 211.93 119 209C115.665 209.875 113.773 211.022 112 214z"/>
<path style="fill:#a47937; stroke:none;" d="M54 211C55.9433 211.622 56.949 211.436 59 211C57.0567 210.378 56.051 210.564 54 211z"/>
<path style="fill:#c27f36; stroke:none;" d="M49 213C51.5307 213.71 52.5155 213.131 54 211C52.125 211.547 50.7447 212.11 49 213z"/>
<path style="fill:#ff0000; stroke:none;" d="M88 211L89 212L88 211z"/>
<path style="fill:#996633; stroke:none;" d="M116.667 212.333C116.222 212.778 117.278 212.722 117.333 212.667C117.778 212.222 116.722 212.278 116.667 212.333z"/>
<path style="fill:#f59d00; stroke:none;" d="M93 216C94.9386 216.892 95.519 217.402 97 219C97.8575 216.57 97.1829 215.28 96 213C94.0775 213.902 94.0012 214.076 93 216z"/>
<path style="fill:#bc8738; stroke:none;" d="M110 218C112.763 216.701 114.164 215.447 116 213C113.001 214.05 111.447 215.156 110 218z"/>
<path style="fill:#ff0000; stroke:none;" d="M116 213L117 214L116 213z"/>
<path style="fill:#cc8b25; stroke:none;" d="M44 216L49 215C46.6996 214.084 45.6232 214.121 44 216z"/>
<path style="fill:#ff0000; stroke:none;" d="M49 214L50 215L49 214z"/>
<path style="fill:#f49c1e; stroke:none;" d="M77 221C76.4503 225.206 72.2047 223.321 69.0278 224.5C64.3199 226.247 61.3754 231.418 56 231C52.3898 234.415 44.9417 236.843 40 237.744C34.5439 238.739 29.277 238.044 27 244C47.3854 243.125 67.5209 242 88 242C85.3873 240.902 82.8355 241.007 80 241C89.5444 238.179 99.3932 239.967 109 240C109.936 238.051 110.392 237.45 112 236L112 234C104.498 231.266 94.9379 232.926 89 227L93 228L92 225L96 224C95.4356 220.142 93.2167 218.081 91 215C86.0201 216.627 82.2037 219.865 77 221z"/>
<path style="fill:#bb8025; stroke:none;" d="M36 217C38.8065 218.146 41.0713 217.692 44 217C41.1935 215.854 38.9287 216.308 36 217z"/>
<path style="fill:#f1a443; stroke:none;" d="M82 219C84.2974 218.326 84.7741 218.035 86 216C84.0514 216.936 83.4498 217.392 82 219z"/>
<path style="fill:#e1a23f; stroke:none;" d="M107 219C108.924 217.999 109.098 217.923 110 216C107.636 216.482 107.482 216.636 107 219z"/>
<path style="fill:#ff0000; stroke:none;" d="M25 218L26 219L25 218z"/>
<path style="fill:#a87530; stroke:none;" d="M30 220C33.0619 220.906 35.9145 219.704 39 219C35.6821 217.649 33.1539 218.483 30 220z"/>
<path style="fill:#e79e2f; stroke:none;" d="M71 223C73.7851 224.329 76.5832 224.317 77 221L84 220C79.4616 217.234 75.2674 221.008 71 223z"/>
<path style="fill:#997340; stroke:none;" d="M107 221C108.457 219.897 108.897 219.457 110 218C107.876 218.899 107.899 218.876 107 221z"/>
<path style="fill:#bb915c; stroke:none;" d="M26 220C27.506 220.683 28.3148 220.826 30 221C28.494 220.317 27.6852 220.174 26 220z"/>
<path style="fill:#ff0000; stroke:none;" d="M73 220L74 221L73 220z"/>
<path style="fill:#aa7155; stroke:none;" d="M103.667 222.333C103.222 222.778 104.278 222.722 104.333 222.667C104.778 222.222 103.722 222.278 103.667 222.333z"/>
<path style="fill:#ff0000; stroke:none;" d="M65 224L66 225L65 224z"/>
<path style="fill:#ba863d; stroke:none;" d="M96 226C98.3702 226.589 99.7068 225.955 102 225C99.6298 224.411 98.2932 225.045 96 226z"/>
<path style="fill:#996633; stroke:none;" d="M156 224L156 227C156.696 225.446 156.696 225.554 156 224z"/>
<path style="fill:#b78a11; stroke:none;" d="M157 224L156 230C157.654 227.823 157.994 226.575 157 224z"/>
<path style="fill:#ff0000; stroke:none;" d="M100 225L101 226L100 225M61 226L62 227L61 226z"/>
<path style="fill:#e29a39; stroke:none;" d="M37 237C41.7897 238.935 53.0441 235.104 56 231C59.9004 231.159 62.3627 229.01 66 228C62.3417 225.576 59.6091 228.16 56 229.867C49.9737 232.715 43.3377 234.934 37 237z"/>
<path style="fill:#a27a3a; stroke:none;" d="M59.6667 227.333C59.2222 227.778 60.2778 227.722 60.3333 227.667C60.7778 227.222 59.7222 227.278 59.6667 227.333z"/>
<path style="fill:#b86c0f; stroke:none;" d="M94 230C96.7386 229.789 97.422 229.697 98 227C95.7026 227.674 95.2259 227.965 94 230z"/>
<path style="fill:#ac803b; stroke:none;" d="M49 231C52.5606 232.235 55.6985 230.535 59 229C55.5895 228.294 52.3272 230.092 49 231z"/>
<path style="fill:#bb8b44; stroke:none;" d="M98 228C100.276 230.604 103.683 229.999 107 230L128 230C119.149 226.286 107.467 230.254 98 228z"/>
<path style="fill:#ff0000; stroke:none;" d="M130 228L131 229L130 228M133.667 228.333C133.222 228.778 134.278 228.722 134.333 228.667C134.778 228.222 133.722 228.278 133.667 228.333z"/>
<path style="fill:#808000; stroke:none;" d="M135 228L136 229L135 228z"/>
<path style="fill:#bf8040; stroke:none;" d="M136 228C137.769 228.779 139.036 228.912 141 229C139.231 228.221 137.964 228.088 136 228z"/>
<path style="fill:#996633; stroke:none;" d="M141 228C143.332 228.985 145.457 228.981 148 229C145.668 228.015 143.543 228.019 141 228z"/>
<path style="fill:#ba8620; stroke:none;" d="M136 229C140.724 230.982 146.91 230 152 230L152 228C146.618 228.425 141.421 229 136 229z"/>
<path style="fill:#bd8b49; stroke:none;" d="M155 228C153.521 228.986 153.797 229 152 229C153.522 229.855 155.945 230.288 155 228z"/>
<path style="fill:#df922f; stroke:none;" d="M93 229C96.0589 232.555 102.583 231.988 107 232C102.681 230.061 97.6049 230.109 93 229z"/>
<path style="fill:#d39837; stroke:none;" d="M101 230C105.969 232.085 112.65 231 118 231L152 231C147.949 229.3 143.332 230.243 139 229.83C126.544 228.645 113.608 230 101 230z"/>
<path style="fill:#e8a73a; stroke:none;" d="M107 231C108.686 232.656 109.746 233.251 112 234C115.888 231.055 121.284 232 126 232C136.096 232 145.959 232.208 156 233L156 230C139.697 231.287 123.378 231 107 231z"/>
<path style="fill:#f49d10; stroke:none;" d="M78 231C77.5129 234.676 78.234 236.533 81 239C83.0545 234.915 82.5617 232.386 78 231z"/>
<path style="fill:#b27735; stroke:none;" d="M33 236C38.2495 238.14 44.0427 234.912 49 233C44.1318 231.646 38.0109 235.263 33 236z"/>
<path style="fill:#eda000; stroke:none;" d="M96 232C98.273 234.601 101.694 233.997 105 234C102.18 232.805 99.0074 232.718 96 232z"/>
<path style="fill:#f0a12b; stroke:none;" d="M112 232C115.959 233.661 120.74 233 125 233L148 233C144.041 231.339 139.26 232 135 232L112 232z"/>
<path style="fill:#f19f00; stroke:none;" d="M148 235C150.132 234.224 150.771 233.87 152 232C149.261 232.211 148.578 232.303 148 235z"/>
<path style="fill:#808080; stroke:none;" d="M43 233L44 234L43 233z"/>
<path style="fill:#f39c0d; stroke:none;" d="M112 234L112 236L144 236L144 234L112 234z"/>
<path style="fill:#ff0000; stroke:none;" d="M32 236L33 237L32 236z"/>
<path style="fill:#be8433; stroke:none;" d="M26 238C29.6115 239.512 33.2294 238.7 37 238C33.3885 236.488 29.7706 237.3 26 238z"/>
<path style="fill:#e19f5b; stroke:none;" d="M26 239C26.077 241.645 25.9966 243.266 28 245C28.183 242.572 28.4229 241.83 30 240C28.494 239.317 27.6852 239.174 26 239z"/>
<path style="fill:#99804d; stroke:none;" d="M25 240L25 245C25.8299 242.97 25.8299 242.03 25 240z"/>
<path style="fill:#e7a002; stroke:none;" d="M164 240L164 242L168 242L168 240L164 240z"/>
<path style="fill:#eb9d2c; stroke:none;" d="M171 241C167.92 243.066 162.664 242 159 242L131 242L68 242C54.2927 242 39.2546 241.275 26 245C29.8823 246.392 34.8331 245.007 39 245L70 245L173 245L173 241L171 241z"/>
<path style="fill:#d5972e; stroke:none;" d="M30 245C34.2151 246.769 39.4645 246 44 246L72 246L168 246C163.785 244.231 158.536 245 154 245L126 245L30 245z"/>
<path style="fill:#ac7736; stroke:none;" d="M27 246C31.4687 247.875 37.1913 247 42 247L71 247L174 247C169.531 245.125 163.809 246 159 246L130 246L27 246z"/>
</svg>
